<?xml version="1.0"?>
<svg width="640" height="1280" xmlns="http://www.w3.org/2000/svg" xmlns:svg="http://www.w3.org/2000/svg" preserveAspectRatio="xMidYMid meet">
 <metadata>Created by potrace 1.15, written by Peter Selinger 2001-2017</metadata>
 <g class="layer">
  <title>Layer 1</title>
  <g fill="#000000" id="svg_1" transform="translate(0 1280) scale(0.1 -0.1)">
   <path d="m3467,12770c-15,-17 -27,-37 -27,-44c0,-18 33,-46 104,-86c84,-49 91,-66 76,-193c-6,-56 -32,-226 -56,-377c-24,-151 -56,-349 -69,-440c-32,-210 -47,-288 -91,-474c-45,-193 -80,-321 -101,-369c-15,-34 -20,-38 -42,-33c-90,21 -86,22 -144,-33c-30,-28 -57,-51 -60,-51c-3,0 -20,21 -38,46c-75,109 -250,112 -274,3c-14,-63 54,-126 148,-136c58,-6 96,8 131,46c11,12 25,21 32,21c17,0 34,-32 34,-63c0,-21 -7,-26 -44,-36c-75,-19 -130,-94 -118,-159c6,-31 55,-78 87,-85c15,-2 42,-1 61,3c38,9 38,11 -14,-63c-19,-27 -36,-64 -39,-87c-5,-33 -14,-48 -49,-77c-53,-43 -70,-92 -54,-153c16,-59 45,-74 125,-65c36,3 65,4 65,0c0,-21 -74,-293 -86,-316c-8,-17 -32,-36 -60,-48c-66,-29 -260,-187 -278,-226c-45,-95 17,-192 106,-167c63,17 117,59 141,110c29,61 53,67 64,15c13,-63 9,-843 -5,-875c-14,-33 -43,-37 -69,-9c-10,10 -27,23 -39,29c-30,16 -193,34 -232,27c-40,-7 -72,-54 -72,-105c0,-50 23,-79 69,-86c37,-6 39,-8 44,-51c3,-25 13,-56 23,-68c11,-12 41,-50 67,-83c27,-33 62,-65 78,-71c16,-6 42,-16 59,-22c16,-6 38,-26 49,-44c11,-19 33,-41 50,-49c21,-11 33,-27 40,-54c15,-58 53,-323 47,-329c-3,-3 -39,-1 -80,6c-48,7 -84,7 -100,2c-36,-14 -60,-86 -53,-158c5,-44 2,-64 -14,-94c-21,-43 -24,-77 -9,-130c11,-39 37,-61 85,-73c17,-4 61,-27 99,-52c38,-24 73,-44 76,-44c4,0 24,14 45,30c21,17 42,30 46,30c5,0 15,-16 23,-35c8,-19 22,-35 30,-35c12,0 16,-11 16,-41c0,-22 14,-99 30,-171c17,-71 30,-156 30,-188c0,-51 -3,-61 -26,-79c-15,-12 -40,-21 -56,-21c-42,0 -65,-16 -88,-59c-10,-21 -28,-41 -38,-43c-30,-8 -73,-90 -74,-138c-1,-56 17,-71 94,-79c34,-4 68,-10 74,-14c6,-3 17,-27 23,-52c9,-37 18,-49 46,-62c34,-16 35,-16 108,22c95,48 122,48 163,1c27,-31 85,-183 84,-222c0,-19 -53,-24 -244,-25c-263,0 -320,-8 -392,-53c-33,-20 -66,-36 -73,-36c-23,0 -141,-50 -185,-78c-23,-14 -72,-55 -111,-92c-38,-37 -101,-89 -140,-116c-38,-27 -99,-80 -135,-117c-36,-38 -84,-78 -108,-89c-48,-23 -94,-78 -166,-202c-26,-44 -69,-104 -96,-133c-30,-33 -71,-96 -102,-158c-42,-86 -52,-117 -58,-177c-4,-56 -12,-82 -32,-111c-15,-21 -32,-55 -39,-75c-20,-64 -47,-108 -105,-177c-31,-36 -54,-68 -51,-71c3,-3 18,1 34,9c44,23 158,45 288,57c188,17 241,27 300,54c30,14 55,21 55,17c0,-5 -39,-42 -87,-82c-192,-163 -198,-170 -262,-318c-37,-85 -54,-116 -160,-290c-68,-111 -84,-168 -136,-471c-50,-293 -76,-383 -151,-531c-30,-58 -54,-111 -54,-117c0,-6 64,53 143,132c170,171 224,209 327,230c96,19 311,49 316,43c8,-8 -16,-642 -26,-691c-5,-27 -21,-73 -34,-103c-14,-29 -21,-53 -16,-53c4,0 62,21 127,47l118,47l205,6l205,7l120,40c66,23 128,44 138,48c16,7 17,-4 17,-151c-1,-151 -11,-308 -26,-401c-5,-33 -3,-43 7,-43c8,0 66,51 130,113c64,61 163,154 222,204l105,93l22,-92c38,-163 38,-173 -10,-279c-58,-130 -60,-140 -64,-264c-2,-61 -11,-139 -20,-174c-21,-77 -25,-283 -7,-358c9,-38 10,-65 2,-109c-16,-86 -13,-170 9,-259c26,-102 34,-220 23,-312c-5,-40 -7,-73 -5,-73c14,0 117,86 187,156c45,44 111,97 149,119c84,48 197,153 323,299l95,109l-9,151c-16,287 -12,346 32,479l38,118l-28,119c-34,149 -31,169 39,248c30,34 57,70 61,81c3,11 -3,72 -14,135c-26,142 -26,157 -1,205c23,47 28,95 40,406c6,145 16,270 25,315c18,83 125,410 134,410c3,-1 29,-49 56,-107c56,-120 100,-193 114,-193c6,0 1,21 -11,48c-26,59 -28,170 -4,262c10,36 46,126 82,200c62,132 64,138 65,220c1,74 2,81 11,53c6,-18 14,-33 18,-33c10,0 88,257 99,328c24,154 -68,523 -167,670c-21,31 -60,96 -87,144c-26,47 -72,115 -102,149c-30,34 -81,101 -113,149c-35,52 -88,114 -131,151c-39,35 -97,87 -128,114c-73,66 -143,107 -333,199c-151,73 -158,78 -204,138c-55,73 -97,159 -88,181c6,18 43,33 98,41c71,10 94,50 66,114c-23,52 -65,74 -134,72c-28,-2 -59,-2 -68,-1c-43,3 -138,120 -138,170l0,25l20,-22c56,-60 189,-89 262,-59c38,16 78,67 78,99c0,22 -48,78 -66,78c-24,0 -76,30 -117,66c-20,19 -47,34 -60,34c-13,0 -49,-23 -85,-55c-35,-30 -67,-55 -72,-55c-15,0 -70,209 -70,267c0,25 7,36 34,52c44,27 85,89 93,137c8,55 20,74 46,74c30,0 64,25 82,60c21,40 19,74 -6,96c-38,34 -59,93 -59,171l0,72l-36,7c-56,10 -215,-2 -257,-20c-21,-9 -42,-14 -47,-11c-10,6 -26,76 -45,206c-21,137 -20,172 6,195c18,16 20,28 17,77l-4,57l27,-26c34,-33 94,-35 143,-5c33,21 55,62 70,132c3,15 24,48 46,75c53,64 55,108 7,161c-26,28 -42,37 -73,39c-21,1 -44,2 -51,3c-6,1 -30,17 -53,36c-51,43 -90,45 -144,9c-22,-15 -42,-22 -47,-17c-17,17 -29,152 -28,338c0,170 10,319 22,331c2,2 24,-7 48,-21c62,-35 110,-33 143,5c26,31 42,89 33,114c-9,23 13,34 80,42c83,9 95,19 101,85c4,48 1,59 -22,86c-15,18 -50,39 -87,53c-58,22 -92,53 -88,82c8,63 -36,118 -102,127c-55,7 -59,23 -28,126c26,90 44,110 103,119c26,4 59,18 75,32c30,25 65,31 76,14c9,-15 63,-12 102,6c58,28 87,76 88,148c0,45 7,72 23,100c27,46 28,95 2,129c-26,33 -100,61 -140,54c-23,-5 -30,-3 -30,9c0,23 29,86 50,109c38,42 51,142 22,168c-27,25 -103,22 -136,-4c-42,-33 -33,-66 10,-34c10,8 25,15 32,15c21,0 13,-47 -12,-77l-24,-28l-22,28c-18,22 -28,27 -47,22c-23,-5 -24,-5 -9,24c72,139 256,983 341,1571c35,239 50,324 61,342c3,4 42,-23 87,-62c45,-38 86,-70 90,-70c18,0 -18,42 -135,156c-130,127 -203,184 -237,184c-24,0 -27,10 -9,28c23,23 58,11 130,-47c100,-79 266,-253 284,-297c11,-27 20,-35 37,-32c12,2 23,10 25,19c4,23 -74,114 -200,234c-122,117 -200,173 -249,181c-31,5 -39,2 -62,-26zm-552,-2047c16,-16 16,-17 -1,-30c-35,-26 -84,-13 -84,23c0,21 5,24 34,24c19,0 42,-8 51,-17zm301,-49c16,-24 16,-26 -3,-46c-25,-25 -39,-18 -48,22c-12,53 22,69 51,24zm-121,-174c4,-6 1,-18 -6,-26c-15,-19 -89,-57 -96,-50c-11,11 10,46 40,65c36,23 53,26 62,11zm222,-22c28,-26 30,-69 4,-92c-19,-17 -20,-17 -30,3c-12,22 -15,111 -4,111c4,0 17,-10 30,-22zm-87,-108c-12,-45 -51,-73 -72,-52c-8,8 1,27 33,70c48,65 60,60 39,-18zm264,-91c37,-29 35,-59 -4,-59c-31,0 -50,22 -50,59c0,27 20,27 54,0zm-134,-9c23,-23 24,-39 9,-110c-7,-31 -19,-56 -32,-65c-24,-17 -127,-21 -127,-5c0,21 41,90 53,90c6,0 23,-9 37,-20c51,-40 55,-15 7,44c-44,54 -49,64 -42,76c11,18 74,11 95,-10zm-183,-27c4,-13 -28,-37 -63,-47c-31,-9 -38,19 -11,44c23,22 68,24 74,3zm273,-173c27,-27 27,-70 0,-70c-20,0 -60,52 -60,78c0,19 38,14 60,-8zm-430,-42c0,-18 -50,-78 -66,-78c-21,0 -17,43 6,68c22,23 60,30 60,10zm255,-18c3,-5 1,-19 -5,-30c-14,-25 -50,-27 -50,-2c0,33 40,56 55,32zm-105,-441c0,-15 -52,-87 -67,-93c-26,-10 -13,45 16,75c30,30 51,37 51,18zm-173,-134c6,-16 -19,-50 -49,-66c-13,-7 -21,-3 -34,16c-16,24 -16,27 1,45c22,24 73,27 82,5zm233,-84c0,-26 -21,-43 -37,-30c-16,14 -17,41 -1,57c14,14 38,-2 38,-27zm160,1c0,-17 -52,-82 -65,-82c-22,0 -19,46 5,70c19,19 60,28 60,12zm-490,-48c0,-17 -27,-18 -33,-1c-2,6 -2,18 1,25c6,16 32,-4 32,-24zm-90,-12c0,-25 -45,-66 -65,-58c-44,16 -15,76 37,76c20,0 28,-5 28,-18zm347,-108c12,-19 14,-30 6,-43c-16,-25 -46,-20 -57,10c-19,55 19,81 51,33zm-471,-839c7,-18 -13,-45 -33,-45c-19,0 -28,27 -13,45c16,19 39,19 46,0zm489,5c9,-14 -13,-50 -31,-50c-8,0 -17,7 -20,15c-11,29 35,61 51,35zm-368,-21c14,-14 6,-39 -12,-39c-18,0 -28,17 -21,35c6,18 18,19 33,4zm221,-75c2,-25 -3,-37 -28,-58c-29,-24 -69,-34 -83,-20c-10,10 12,57 41,87c35,37 66,33 70,-9zm342,17c13,-25 2,-53 -19,-49c-17,3 -26,31 -17,54c8,20 23,18 36,-5zm-610,-90c0,-12 -29,-35 -36,-28c-11,10 5,37 21,37c8,0 15,-4 15,-9zm324,-14c8,-12 7,-21 -6,-33c-20,-20 -38,-11 -38,20c0,39 23,46 44,13zm176,-11c0,-12 -6,-28 -12,-35c-11,-10 -8,-16 11,-30c25,-19 21,-41 -8,-41c-29,0 -41,22 -41,72c0,34 5,50 17,57c23,12 33,5 33,-23zm-325,-86c0,-10 -12,-16 -32,-18c-28,-3 -33,0 -33,18c0,18 5,21 33,18c20,-2 32,-8 32,-18zm123,-99c-2,-9 -11,-17 -21,-19c-21,-4 -35,27 -17,38c19,12 42,0 38,-19zm262,-541c0,-10 -52,-40 -70,-40c-19,0 -5,24 21,37c29,15 49,16 49,3zm104,-6c21,-8 21,-40 0,-48c-21,-8 -34,1 -34,23c0,28 9,34 34,25zm-296,-62c2,-12 -1,-22 -7,-22c-13,0 -32,35 -24,44c12,12 28,0 31,-22zm-130,-14c4,-20 -30,-40 -52,-32c-16,6 -22,35 -9,48c13,13 58,1 61,-16zm212,-3c16,-19 3,-40 -16,-24c-15,13 -19,39 -5,39c5,0 14,-7 21,-15zm114,-44c9,-13 -3,-39 -20,-45c-17,-6 -29,17 -20,39c6,17 32,20 40,6zm-195,-55c15,-18 3,-46 -19,-46c-20,0 -32,23 -24,45c8,19 28,19 43,1zm359,-35c10,-6 5,-15 -20,-36c-33,-28 -33,-28 -36,-6c-6,38 25,62 56,42zm-534,-37c23,-9 20,-41 -5,-54c-41,-22 -66,11 -33,44c18,18 17,18 38,10zm385,-18c18,-18 6,-36 -25,-36c-28,0 -68,35 -58,51c8,14 64,3 83,-15zm-95,-69c8,-12 8,-22 0,-34c-21,-33 -34,-26 -34,17c0,43 13,50 34,17zm-126,-44c5,-16 -22,-27 -44,-19c-13,5 -14,9 -4,22c15,17 41,15 48,-3zm229,-39c3,-8 1,-20 -5,-26c-15,-15 -43,8 -35,28c7,19 32,18 40,-2zm199,-456c7,-10 -20,-38 -38,-38c-12,0 -10,24 4,38c15,15 25,15 34,0zm122,-80c-5,-15 -35,-34 -43,-27c-3,4 -3,14 1,23c7,18 48,23 42,4zm-262,-93c16,-40 21,-99 9,-135c-9,-31 -34,-60 -51,-60c-10,0 -8,14 7,57c23,67 23,91 4,117c-8,11 -15,28 -15,38c0,31 30,20 46,-17zm-118,-71c4,-25 -21,-59 -36,-50c-16,9 -15,49 0,64c16,16 32,10 36,-14zm-114,-96c8,-13 6,-22 -8,-37c-25,-27 -34,-26 -48,4c-20,45 29,75 56,33zm323,6c2,-6 -8,-16 -22,-22c-33,-15 -35,-15 -35,1c0,31 48,48 57,21zm181,-16c19,-19 15,-48 -7,-48c-24,0 -45,25 -37,45c7,18 27,20 44,3zm-138,-36c0,-4 -7,-18 -16,-30c-9,-14 -14,-36 -12,-53c7,-44 -10,-35 -34,18c-20,45 -20,47 -2,60c19,14 64,18 64,5zm-212,-95c5,-27 -17,-50 -34,-36c-15,12 -19,41 -7,53c12,12 38,1 41,-17zm444,-359c18,-22 32,-55 39,-93c6,-33 27,-112 46,-175c37,-120 58,-301 35,-286c-7,4 -32,73 -57,154c-25,81 -64,199 -86,262c-47,132 -60,180 -52,193c7,12 42,-14 75,-55zm-587,-47c0,-22 -52,-36 -83,-21c-26,12 -26,12 -7,26c25,19 90,15 90,-5zm214,8c43,-15 39,-29 -8,-29c-38,0 -127,-14 -166,-27c-35,-11 5,28 50,48c46,21 79,23 124,8zm637,-74c15,-19 30,-50 33,-68c6,-29 14,-35 91,-65c134,-53 240,-135 240,-185c0,-9 14,-29 31,-44c17,-16 37,-40 45,-55c13,-25 13,-28 0,-28c-9,0 -32,15 -52,32c-34,30 -36,31 -29,9c7,-22 5,-23 -16,-17c-13,3 -37,9 -54,12c-16,3 -40,7 -52,10c-25,5 -73,69 -73,98c0,10 -30,52 -67,93c-131,144 -201,243 -188,263c10,15 61,-16 91,-55zm-347,8c33,-66 72,-183 112,-338l38,-150l-168,-162c-93,-90 -206,-206 -250,-257c-94,-109 -99,-111 -250,-121c-131,-9 -164,-19 -282,-87c-53,-31 -120,-63 -150,-73c-30,-10 -91,-40 -136,-67c-45,-26 -93,-48 -106,-48c-14,0 -64,-16 -111,-35c-48,-19 -90,-35 -93,-35c-3,0 -2,21 2,48c5,39 19,75 63,165c2,5 -7,2 -21,-8c-24,-15 -26,-15 -31,2c-8,26 9,79 40,126l26,40l-57,-47c-50,-40 -85,-57 -85,-41c0,16 38,76 81,131c53,67 184,194 199,194c13,0 13,-3 -5,-47c-20,-53 -33,-133 -41,-254l-7,-104l23,20c12,11 31,33 43,49l20,28l-22,-7c-41,-13 -23,42 35,108c19,20 34,44 34,52c0,10 -12,2 -31,-20c-25,-28 -34,-33 -45,-24c-18,15 -18,59 0,101c8,18 20,53 26,78c10,38 33,66 144,176c189,188 451,391 650,504c49,28 58,30 51,14c-4,-10 -14,-39 -22,-64c-25,-78 -43,-112 -63,-117c-11,-3 -16,-11 -13,-19c6,-17 -79,-108 -96,-103c-8,3 1,22 25,53c35,46 32,53 -9,18c-23,-20 -30,-11 -17,22c14,38 13,56 -5,56c-19,0 -35,-31 -35,-68c0,-16 -11,-46 -25,-66c-30,-45 -32,-55 -5,-31c22,20 36,13 42,-20c2,-14 10,-19 27,-17c17,3 21,0 15,-10c-18,-31 -67,-93 -204,-261l-145,-178l-3,85c-3,103 7,148 36,161c13,6 22,19 22,32c0,27 -3,28 -41,6c-38,-23 -48,-56 -59,-195c-5,-65 -13,-125 -19,-135c-5,-10 -36,-34 -68,-53c-32,-20 -66,-49 -76,-65c-10,-17 -43,-68 -72,-115c-30,-47 -55,-91 -55,-97c0,-20 20,-15 28,6c4,10 97,113 206,227c206,216 346,383 456,543c35,52 102,136 149,188c47,52 114,129 149,171c121,147 143,172 152,172c5,0 18,-17 29,-37zm-497,-18c29,-14 67,-25 85,-25c17,0 34,-4 38,-9c12,-20 -43,-34 -189,-47c-83,-8 -164,-19 -179,-25c-41,-17 -58,2 -36,40l17,29l-48,-30c-46,-28 -89,-34 -92,-13c-3,18 103,65 145,65c24,0 49,8 64,20c38,29 125,27 195,-5zm318,18c0,-4 -12,-20 -27,-36c-24,-25 -25,-29 -8,-24c84,24 84,23 11,-52c-39,-39 -71,-69 -73,-67c-2,1 4,19 12,39c8,20 15,50 15,67c0,21 9,39 26,55c27,25 44,32 44,18zm520,-183c31,-47 65,-100 74,-118c9,-18 21,-30 25,-27c5,3 23,-25 41,-62c40,-86 109,-207 172,-301c27,-41 47,-79 45,-85c-2,-7 2,-20 11,-29c21,-25 30,-211 12,-234c-9,-10 -16,-64 -20,-155c-6,-108 -11,-144 -23,-156c-15,-15 -19,-13 -46,16c-36,38 -91,145 -91,176c0,12 -10,37 -23,56c-37,54 -37,64 -12,150c29,95 31,126 10,175c-18,43 -55,97 -62,90c-3,-3 5,-30 18,-61c26,-63 18,-85 -20,-59c-34,24 -51,75 -51,154c0,96 -37,180 -79,180c-12,0 -16,11 -17,39c-1,24 -25,91 -59,168c-84,189 -88,249 -8,125c50,-79 53,-48 4,43c-23,41 -41,78 -41,82c1,15 83,-83 140,-167zm133,102c20,-17 22,-32 5,-32c-17,0 -48,31 -48,47c0,15 13,11 43,-15zm-1433,-32c-6,-11 -8,-25 -5,-30c3,-6 45,-10 93,-11c48,0 134,-6 192,-12l105,-12l-52,-37c-72,-52 -130,-79 -173,-83c-20,-1 -47,-8 -59,-14c-37,-20 -231,0 -231,23c0,16 53,99 97,154c37,45 50,54 33,22zm-240,-215c-33,-34 -66,-47 -58,-22c5,14 66,57 81,57c6,0 -4,-16 -23,-35zm338,-53c15,-10 -22,-47 -92,-91c-60,-38 -87,-41 -78,-9l5,22l-28,-22c-15,-12 -41,-22 -57,-22l-29,0l22,32c21,29 21,31 3,23c-69,-29 -126,-44 -171,-45c-57,0 -71,11 -54,43c20,36 63,61 116,68c75,9 348,10 363,1zm1142,-18c12,-31 12,-34 2,-34c-8,0 -32,43 -32,55c0,16 22,1 30,-21zm379,-68c31,-14 87,-34 125,-46c95,-29 165,-67 175,-93c24,-64 24,-69 2,-62c-24,7 -26,2 -10,-26c8,-17 13,-18 25,-8c23,19 42,-7 122,-161c70,-135 82,-167 121,-335c21,-91 28,-191 12,-181c-4,3 -16,34 -26,68c-23,84 -41,117 -70,128c-16,6 -40,42 -80,122c-73,146 -92,170 -55,69c11,-30 17,-57 15,-59c-3,-3 -16,0 -30,6c-42,19 -48,15 -42,-25c6,-35 5,-36 -8,-19c-9,12 -15,42 -15,74c0,30 -8,76 -17,103c-10,26 -14,51 -10,56c4,4 23,-1 42,-12c42,-22 60,-11 25,16c-38,30 -144,98 -148,95c-1,-2 18,-49 44,-105c25,-57 43,-105 41,-108c-8,-7 -72,94 -125,197c-32,62 -49,84 -61,82c-14,-2 -17,3 -14,25c3,20 -7,44 -32,83c-36,55 -75,124 -75,135c0,9 10,6 69,-19zm-389,-71c0,-14 -4,-25 -10,-25c-5,0 -10,11 -10,25c0,14 5,25 10,25c6,0 10,-11 10,-25zm110,-51c0,-14 -6,-24 -14,-24c-15,0 -36,50 -36,84c1,19 2,19 25,-7c14,-15 25,-39 25,-53zm-1430,4c-42,-37 -135,-98 -152,-98c-5,0 -8,9 -8,20c0,28 -32,26 -68,-5c-30,-25 -52,-31 -65,-18c-4,3 -2,12 4,19c15,18 2,22 -93,26c-90,4 -109,15 -85,51c15,23 63,44 74,33c3,-3 -5,-19 -17,-37l-23,-31l39,26c50,33 67,36 259,45c88,4 165,8 170,9c6,1 -10,-17 -35,-40zm1150,-96c-24,-56 -70,-108 -70,-79c0,31 32,112 59,147l26,35l3,-27c2,-14 -6,-49 -18,-76zm-90,-24c0,-24 -49,-118 -61,-118c-16,0 -2,90 18,113c19,20 43,23 43,5zm-1250,-29c0,-19 -307,-317 -348,-338c-40,-20 -192,-61 -228,-61c-33,0 -39,18 -15,44c12,12 21,34 21,47c0,14 11,36 25,49c14,13 25,19 25,13c0,-6 -7,-16 -15,-23c-16,-13 -20,-40 -7,-40c31,0 222,186 222,215c0,23 -14,18 -60,-20c-47,-39 -60,-43 -60,-18c0,13 -9,8 -35,-17c-27,-26 -35,-30 -35,-16c0,67 207,146 385,146c23,0 58,7 76,15c42,18 49,18 49,4zm1403,-41c-26,-91 -41,-119 -60,-116c-10,2 -25,-10 -37,-29c-27,-41 -37,-42 -25,-1c21,73 0,59 -45,-31c-35,-68 -61,-99 -73,-87c-4,4 -2,21 5,38c6,18 11,33 9,34c-1,1 -26,-26 -55,-62c-29,-35 -57,-64 -62,-64c-37,0 44,183 93,210c26,14 29,14 38,-3c10,-17 13,-16 34,16c16,22 35,36 55,41c18,3 53,27 83,56c29,27 53,50 54,50c1,0 -5,-24 -14,-52zm-259,-10c-10,-35 -141,-294 -168,-334c-30,-44 -38,-33 -37,48c1,72 20,108 57,108c23,0 25,3 20,24c-4,18 -1,25 13,29c11,3 40,37 65,76c47,73 62,88 50,49zm486,-138c0,-92 -7,-133 -21,-124c-10,6 -12,194 -3,219c13,33 24,-9 24,-95zm50,0c0,-16 -4,-30 -10,-30c-5,0 -10,14 -10,30c0,17 5,30 10,30c6,0 10,-13 10,-30zm414,-126c3,-26 7,-74 7,-108c1,-55 15,-139 18,-108c2,19 29,14 41,-7c12,-24 13,-81 1,-81c-5,0 -11,7 -15,15c-11,30 -25,16 -14,-15c6,-19 19,-32 34,-36c21,-5 24,-12 24,-48c0,-23 6,-48 13,-54c19,-20 16,-542 -4,-602c-20,-60 -42,-59 -50,1c-8,51 -24,89 -39,89c-6,0 -10,-7 -10,-15c0,-8 -4,-15 -9,-15c-17,0 -60,305 -61,433c0,32 18,17 36,-28c9,-25 20,-45 24,-45c10,0 20,63 20,129c0,48 -36,231 -45,231c-2,0 -14,-34 -27,-75c-13,-41 -26,-75 -29,-75c-11,0 -19,60 -19,151c0,53 4,89 10,89c6,0 10,25 10,56c0,30 5,65 11,77c18,36 54,87 60,87c4,0 9,-21 13,-46zm-774,6c0,-27 -43,-110 -69,-134c-20,-18 -21,-18 -29,5c-9,22 -11,20 -47,-34c-21,-32 -40,-56 -42,-53c-2,2 4,22 13,44c25,65 10,73 -21,12c-37,-75 -64,-110 -81,-110c-20,0 -17,28 10,85c43,94 102,143 188,159c22,4 42,15 48,26c14,26 30,25 30,0zm-555,-36c14,-6 10,-13 -22,-46l-37,-38l34,6c33,5 34,5 16,-10c-25,-20 -83,-20 -121,0c-21,11 -44,14 -79,10l-49,-5l29,30c16,18 43,37 59,45c31,14 141,19 170,8zm1516,-71c18,-25 54,-70 80,-99c56,-62 89,-152 89,-244c0,-65 -12,-81 -41,-54c-18,17 -19,16 -19,-20c0,-24 -4,-36 -11,-34c-16,5 -33,54 -67,198c-17,69 -35,138 -41,154c-21,53 -22,20 -1,-65c24,-99 24,-110 7,-103c-57,21 -99,248 -57,299c19,23 26,19 61,-32zm-1231,-15c0,-25 -44,-111 -76,-151c-35,-43 -114,-84 -114,-58c0,5 23,44 51,87c81,126 139,177 139,122zm552,-47c-3,-55 -2,-61 16,-61c11,0 30,-8 42,-18l21,-17l-31,-40c-18,-22 -36,-50 -41,-62c-5,-13 -14,-24 -21,-25c-7,0 10,-4 37,-7c45,-5 50,-8 50,-31c0,-21 -5,-26 -31,-28c-21,-2 -45,-17 -75,-48c-45,-46 -59,-53 -59,-30c0,16 -34,31 -50,21c-6,-4 -17,-21 -24,-40c-14,-34 -101,-102 -110,-87c-7,12 10,72 39,135c27,57 33,111 13,105c-7,-3 -32,-60 -56,-128c-45,-132 -55,-151 -73,-133c-16,16 0,78 32,126c16,23 34,59 39,80c13,46 123,162 163,172c19,5 27,14 27,30c0,58 58,161 84,152c7,-3 10,-28 8,-66zm-1997,-11c-34,-48 -95,-98 -95,-76c0,18 107,132 116,123c4,-4 -5,-25 -21,-47zm170,-43c-17,-52 -82,-177 -92,-177c-22,0 42,189 80,237c19,23 22,25 25,9c2,-10 -4,-41 -13,-69zm1145,54c0,-21 -106,-186 -138,-214c-11,-11 -26,-16 -31,-12c-18,10 -12,78 9,113c29,47 42,39 20,-13c-29,-68 -10,-54 35,27c50,88 72,118 91,118c8,0 14,-9 14,-19zm-277,-24c20,-9 37,-23 37,-31c0,-31 -85,-121 -140,-149c-74,-36 -298,-206 -460,-347c-150,-130 -177,-150 -205,-150c-11,0 -42,-18 -69,-40c-61,-51 -87,-54 -51,-6c19,25 19,36 0,36c-9,0 -30,-20 -47,-45c-32,-45 -58,-58 -58,-29c0,8 5,24 11,36c30,55 -36,24 -80,-39c-36,-51 -58,-52 -53,-4c3,32 3,33 -27,26c-41,-9 -41,12 -1,75c16,26 34,68 39,93c10,57 32,92 71,112c32,16 47,18 193,16c53,0 97,3 97,8c0,5 11,12 24,15c21,5 116,104 116,121c0,4 -18,-9 -41,-30c-61,-55 -127,-79 -112,-40c7,19 3,19 -47,-1c-49,-20 -57,-15 -34,20c21,34 16,39 -21,21l-30,-15l28,25c69,61 315,93 375,48c40,-30 34,-46 -27,-65c-29,-10 -69,-29 -87,-43c-35,-27 -45,-55 -19,-55c18,0 20,-14 3,-27c-16,-13 -99,-33 -133,-33c-32,0 -80,-24 -124,-62c-18,-16 -35,-27 -37,-25c-2,2 3,23 11,47c8,23 15,44 15,47c0,2 -25,-12 -55,-32c-67,-42 -78,-44 -64,-8c15,40 -3,48 -40,18c-71,-60 -22,-105 115,-105c65,0 78,-3 93,-21l17,-21l45,22c24,12 98,76 164,140c66,65 156,147 200,182c43,34 77,68 75,73c-3,6 -7,9 -10,9c-3,-1 -16,-5 -28,-9c-21,-6 -23,-4 -17,14l6,21l-42,-19c-70,-31 -92,-7 -40,43c32,31 48,31 182,5c60,-11 69,-11 94,5c15,10 24,20 21,24c-4,3 15,28 41,55l48,49l-61,-41c-96,-64 -166,-81 -116,-28c22,23 29,47 14,47c-4,0 -23,-11 -42,-25c-19,-14 -40,-25 -47,-25c-18,0 -16,30 4,52c27,31 9,29 -41,-3c-27,-16 -50,-28 -53,-26c-9,9 91,87 130,101c55,20 235,16 290,-7zm-1198,-38c12,-18 -85,-162 -99,-148c-3,2 8,33 24,69c16,36 30,75 30,88c0,19 3,21 19,12c11,-5 23,-15 26,-21zm176,-28c-12,-16 -40,-46 -62,-65c-44,-37 -177,-111 -185,-103c-3,3 26,26 65,51c38,25 98,70 131,101c65,60 87,66 51,16zm329,-81c-14,-11 -36,-20 -49,-20c-23,0 -24,1 -6,20c11,12 31,20 49,20l31,0l-25,-20zm1176,-12c10,2 7,-12 -13,-53c-30,-61 -47,-73 -32,-23c5,17 7,33 6,35c-2,2 -25,-30 -50,-71c-48,-75 -73,-103 -83,-93c-8,7 70,162 103,206c25,32 27,33 40,15c8,-10 21,-18 29,-16zm-966,2c0,-17 -47,-60 -65,-60c-21,0 -4,32 27,54c26,19 38,20 38,6zm830,-32c0,-24 -51,-121 -94,-182c-75,-105 -110,-123 -65,-33c81,159 159,265 159,215zm-90,-23c0,-14 -38,-78 -106,-179c-41,-59 -74,-112 -74,-116c0,-14 94,-19 115,-6c32,20 74,27 95,16c25,-13 26,-30 2,-30c-21,0 -49,-28 -81,-83c-21,-35 -81,-78 -81,-58c0,4 7,25 16,46c20,48 13,66 -12,31c-61,-86 -82,-112 -104,-123c-35,-17 -37,-1 -6,51c14,25 26,51 26,60c0,27 -24,7 -49,-39c-23,-43 -59,-78 -110,-104c-38,-21 -47,1 -20,48c31,55 18,63 -20,11c-35,-49 -75,-129 -68,-136c2,-3 46,2 97,11c60,10 96,13 103,6c6,-6 -4,-31 -28,-70c-37,-59 -41,-87 -11,-61c9,6 31,40 50,73c38,68 64,96 113,121c67,34 89,16 57,-47c-32,-63 -83,-116 -123,-127c-21,-5 -46,-19 -56,-30c-12,-13 -31,-20 -55,-20c-21,0 -43,-7 -50,-15c-14,-17 -60,-21 -60,-5c0,5 16,35 36,65c53,83 36,89 -28,9c-60,-75 -83,-98 -110,-107c-31,-11 -29,10 7,77c19,36 33,66 30,66c-13,0 -165,-233 -165,-254c0,-4 15,2 34,13c18,12 46,21 60,21c15,0 33,6 41,13c8,9 50,16 109,20c54,4 109,13 125,22c37,19 61,19 61,2c0,-36 -121,-177 -151,-177c-7,0 -10,12 -7,30c4,29 4,29 -15,12c-10,-9 -28,-34 -38,-54c-15,-29 -26,-38 -44,-38c-28,0 -32,17 -14,53c7,14 -5,7 -32,-19c-81,-77 -133,-84 -79,-11c16,22 30,45 30,49c0,22 -24,2 -75,-62c-75,-92 -122,-110 -90,-34l15,37l-53,-50c-66,-63 -91,-76 -127,-68c-27,6 -32,2 -65,-49c-19,-30 -35,-57 -35,-60c0,-2 30,11 68,30c37,19 95,38 129,43c34,5 72,16 85,25c13,8 84,31 158,50c163,42 212,59 251,86c16,12 29,17 29,12c0,-8 -65,-99 -106,-149c-15,-18 -25,-17 -18,2c19,48 -51,-17 -106,-98c-46,-69 -90,-117 -106,-117c-23,0 -17,19 32,102c26,43 44,81 41,84c-3,3 -31,-29 -63,-73c-69,-94 -124,-154 -136,-147c-5,3 10,39 32,81c48,86 48,119 2,53c-98,-137 -116,-161 -139,-176c-18,-11 -28,-13 -36,-5c-8,8 7,37 52,101c34,49 59,90 54,90c-17,-1 -250,-317 -240,-326c3,-4 43,10 89,29c100,43 244,87 282,87c17,0 35,9 46,23c14,17 21,19 31,10c15,-15 -7,-52 -80,-128c-54,-56 -78,-67 -47,-21c31,48 16,38 -53,-33c-62,-65 -101,-88 -101,-60c0,6 9,24 21,40c41,58 12,49 -35,-11c-73,-92 -134,-125 -84,-43c42,66 42,69 0,29c-23,-22 -57,-70 -77,-107c-20,-38 -40,-71 -45,-74c-24,-15 -23,212 1,258c7,13 7,23 -2,33c-17,20 -5,108 21,151c25,42 25,42 0,36c-25,-7 -25,5 -4,78c23,78 80,183 126,230c43,44 54,46 39,5c-34,-87 64,44 301,404c96,146 213,327 259,403c79,130 88,141 154,185c90,59 195,100 195,77zm1408,-190c2,-60 1,-107 -2,-104c-10,10 -46,200 -46,243l0,41l23,-35c19,-29 23,-52 25,-145zm-458,83c0,-13 -6,-18 -17,-16c-13,2 -19,14 -21,43l-2,40l20,-24c11,-13 20,-32 20,-43zm238,1c2,-49 -11,-37 -22,19c-4,24 -2,32 7,30c6,-3 13,-24 15,-49zm-334,-46c47,-156 48,-206 6,-247l-22,-21l6,75l6,75l-22,-45c-45,-96 -61,-208 -34,-236c17,-16 9,-53 -29,-136l-25,-53l7,78c8,111 -18,103 -54,-16c-8,-28 -35,-80 -59,-115c-28,-41 -53,-95 -70,-151c-36,-118 -79,-207 -115,-233c-25,-19 -29,-28 -29,-67c0,-25 9,-66 20,-90c11,-24 20,-49 20,-56c0,-7 -16,-46 -35,-86c-19,-41 -35,-81 -35,-90c0,-9 -7,-22 -16,-30c-13,-10 -17,-10 -24,1c-12,19 -2,73 31,164c16,44 29,85 29,90c-1,6 -18,-9 -39,-33c-22,-24 -41,-39 -45,-33c-3,6 4,39 18,74c35,92 217,499 298,668c84,174 128,289 164,427c26,101 37,121 48,86zm-1339,-63c-16,-16 -33,-30 -39,-30c-5,0 3,14 19,30c16,17 33,30 39,30c5,0 -3,-13 -19,-30zm775,-8c0,-20 -33,-118 -46,-137c-35,-50 0,-47 51,5c26,26 45,38 56,35c10,-3 69,15 132,40c127,50 207,71 231,62c11,-4 16,-19 16,-47c0,-33 -6,-48 -29,-71c-51,-51 -61,-39 -30,38c7,18 10,35 6,39c-13,13 -39,-20 -78,-98c-27,-53 -45,-78 -57,-78c-10,0 -28,-7 -40,-16c-32,-22 -37,-12 -24,44c5,26 9,48 7,50c-1,1 -16,-19 -34,-46c-57,-89 -110,-121 -83,-50c6,18 10,33 8,35c-2,3 -27,-16 -55,-41c-55,-49 -61,-52 -78,-35c-7,7 -22,-4 -52,-37c-32,-37 -41,-43 -41,-27c0,47 32,200 51,242c27,61 89,126 89,93zm-886,-24c-4,-6 -10,-47 -14,-90c-6,-63 -12,-84 -31,-104c-35,-38 -112,-85 -121,-76c-13,13 7,58 46,105c19,23 42,68 51,99c9,33 25,64 37,72c23,16 43,12 32,-6zm-323,-55c-13,-24 -71,-79 -71,-67c0,9 67,84 76,84c3,0 0,-8 -5,-17zm-106,-24c8,-24 -16,-55 -34,-45c-12,8 -15,49 -4,59c13,14 32,7 38,-14zm1981,-55c9,-35 -13,-128 -36,-156l-18,-23l-10,25c-11,27 1,129 19,161c14,27 38,23 45,-7zm-1801,-99c-17,-31 -18,-42 -7,-118c17,-120 15,-205 -6,-246c-9,-19 -23,-37 -30,-39c-11,-3 -12,0 -3,16c16,30 0,34 -38,11l-33,-20l33,46c39,54 32,68 -15,31c-23,-17 -37,-22 -42,-15c-8,13 3,160 16,210c13,49 67,128 104,150c39,24 44,17 21,-26zm1525,36c0,-19 -31,-80 -56,-110c-34,-41 -59,-42 -50,-1c9,46 -8,36 -33,-20c-32,-72 -85,-93 -93,-38c-5,33 -38,37 -38,4c0,-15 -6,-26 -13,-26c-7,0 -28,-11 -47,-25l-34,-25l-23,22l-23,21l-11,-31c-14,-41 -25,-40 -42,1l-14,32l-23,-50c-27,-59 -48,-85 -67,-85c-7,0 -13,11 -13,25c0,38 -17,30 -50,-22c-32,-50 -45,-81 -37,-89c3,-3 42,13 87,36c104,52 276,110 349,117c45,5 63,12 94,39c32,30 57,42 57,30c0,-2 -7,-23 -15,-47c-19,-53 -62,-116 -88,-131c-18,-9 -19,-7 -15,21c2,17 3,31 0,31c-2,0 -38,-31 -80,-70c-43,-38 -80,-70 -84,-70c-5,0 -8,16 -8,36l0,37l-26,-39c-72,-107 -111,-114 -85,-14l10,35l-22,-29c-48,-63 -120,-147 -123,-143c-2,2 5,22 16,45c22,46 25,62 10,62c-11,0 -130,-177 -130,-192c0,-13 4,-11 149,61c161,81 256,121 287,121c13,0 24,8 27,20c7,25 23,26 30,1c11,-42 -68,-210 -118,-251c-36,-30 -32,2 10,85c51,101 48,95 36,95c-6,0 -36,-39 -67,-87c-58,-90 -111,-153 -127,-153c-4,0 -6,3 -4,8c13,20 35,112 27,112c-5,0 -25,-31 -45,-69c-20,-38 -47,-79 -61,-92l-24,-22l0,25c0,15 9,47 20,73c31,72 2,50 -52,-40c-62,-102 -76,-117 -97,-105c-12,7 -27,-3 -67,-47c-56,-63 -74,-64 -74,-4c0,34 9,56 67,165c9,15 21,79 28,141c6,61 15,117 19,124c5,7 12,60 17,119c12,144 26,208 58,266c26,49 95,111 112,100c24,-14 -12,-126 -39,-122c-9,2 -27,-16 -45,-45c-49,-78 -29,-80 120,-8c70,33 133,61 138,61c6,0 35,16 65,35c33,21 61,33 72,29c10,-3 39,6 65,20c27,14 75,31 108,39c76,18 85,19 85,8zm331,-32c6,-13 9,-38 5,-60c-8,-52 -45,-149 -57,-149c-16,0 -8,94 16,208c7,28 21,28 36,1zm-2134,-156c-46,-65 -157,-227 -246,-361c-205,-310 -338,-487 -354,-472c-15,14 33,143 72,194c47,61 135,146 151,146c5,0 9,3 9,8c-4,26 8,51 65,136c35,53 60,96 55,96c-4,0 -48,-50 -96,-112c-230,-292 -208,-267 -211,-231c-4,35 21,89 79,175c49,72 50,84 3,30c-58,-68 -83,-50 -45,32c10,23 21,48 24,56c5,17 133,62 240,84c68,14 107,37 107,63c0,10 -6,12 -21,8c-15,-5 -20,-3 -17,5c2,7 19,18 38,24c27,8 58,39 129,128c52,65 97,116 99,113c2,-2 -34,-57 -81,-122zm465,85c-24,-38 -79,-94 -87,-87c-2,3 11,28 30,56c49,73 100,100 57,31zm-524,-85c-2,-10 -28,-30 -58,-45c-54,-27 -86,-36 -205,-59c-54,-10 -66,-17 -114,-67c-30,-32 -52,-50 -49,-42c3,8 15,45 27,81c20,61 26,68 70,93c66,35 150,54 249,55c74,1 83,-1 80,-16zm2044,-18c9,-19 7,-36 -8,-81c-28,-82 -44,-82 -44,1c0,94 26,136 52,80zm182,-33c-8,-67 -34,-136 -46,-124c-11,11 6,132 23,164c17,31 29,10 23,-40zm-2100,-28c-40,-91 -45,-111 -27,-126c13,-10 14,-31 10,-118c-5,-105 -28,-190 -53,-190c-6,0 -32,-16 -58,-36c-25,-21 -49,-35 -51,-32c-3,3 22,45 55,93c33,49 57,91 54,94c-3,3 -30,-21 -60,-54l-54,-60l16,55c17,57 47,120 85,178c33,51 9,38 -48,-25l-52,-58l18,61c10,34 33,90 52,124c35,66 131,180 137,162c1,-5 -9,-36 -24,-68zm2318,-76c-10,-22 -11,-21 -11,12c-1,26 2,31 11,22c8,-8 8,-17 0,-34zm-2702,24c0,-4 -13,-23 -30,-42c-33,-40 -41,-23 -9,21c19,28 39,38 39,21zm2351,-19c19,-51 -10,-137 -41,-118c-11,7 -14,103 -4,129c10,25 33,19 45,-11zm-201,-22c0,-22 -41,-138 -55,-156c-15,-19 -16,-17 -12,36c2,35 12,69 26,92c21,35 41,48 41,28zm269,-73c32,-90 20,-336 -18,-388c-10,-14 -23,-41 -30,-61c-12,-36 -42,-69 -144,-153c-32,-26 -65,-62 -73,-79c-21,-40 -75,-98 -86,-91c-28,18 14,348 52,404c9,13 12,12 25,-4c23,-31 18,-72 -21,-158c-46,-103 -40,-128 11,-44c22,36 43,66 46,66c4,0 10,-16 13,-35c4,-19 11,-37 16,-40c18,-11 30,36 40,164c9,128 24,187 57,223c24,27 35,11 28,-42c-6,-42 -4,-48 14,-53c16,-4 21,-13 21,-41c0,-40 15,-48 24,-13c13,53 19,244 7,251c-6,4 -11,2 -11,-3c0,-6 -4,-11 -10,-11c-13,0 -13,81 0,114c13,35 26,33 39,-6zm-192,-30c80,-83 80,-100 9,-244l-55,-109l0,97c-1,73 4,110 18,148c26,67 9,63 -31,-7l-33,-58l-3,43c-3,42 32,172 47,172c4,0 25,-19 48,-42zm-2109,-294c-2,-90 -7,-116 -21,-131c-28,-32 -137,-58 -137,-33c0,6 27,38 60,71c33,34 57,66 54,70c-7,11 -16,6 -72,-39c-74,-60 -67,-34 41,146l62,102l8,-37c5,-21 7,-88 5,-149zm1912,116c0,-41 -37,-135 -66,-168l-23,-27l-1,26c0,30 44,165 61,185c18,22 29,16 29,-16zm56,-64c10,-25 -15,-120 -50,-194c-44,-90 -61,-103 -51,-36c7,50 50,195 66,227c12,21 28,22 35,3zm-318,-111c-43,-79 -111,-165 -122,-154c-3,3 -1,33 5,67c11,61 12,62 83,116c39,30 72,53 73,52c2,-2 -16,-38 -39,-81zm-1448,57c0,-5 -13,-21 -30,-37c-35,-34 -39,-26 -8,15c21,29 38,39 38,22zm789,-39c-6,-16 -15,-149 -19,-298c-5,-148 -13,-285 -19,-303c-21,-70 -109,-189 -112,-151c-3,36 5,68 28,114l25,50l-25,-24c-14,-12 -30,-20 -36,-16c-20,12 -11,47 25,97c42,57 40,77 -3,24c-33,-43 -43,-45 -43,-11c0,33 20,71 65,125c43,51 38,66 -8,22c-61,-59 -64,-30 -7,81c22,42 36,77 32,77c-5,0 -27,-17 -49,-37c-36,-35 -41,-47 -63,-141c-19,-89 -22,-118 -15,-200c4,-54 8,-131 9,-172c1,-94 -7,-101 -121,-87c-43,5 -80,11 -83,13c-2,3 1,13 6,22c6,9 26,44 43,77l33,60l-32,-37c-63,-75 -66,-42 -8,79c23,49 44,93 47,98c2,6 -10,-5 -26,-22c-33,-35 -53,-42 -53,-20c0,38 390,607 416,607c2,0 -1,-12 -7,-27zm60,-63c-22,-72 -20,-91 10,-83c27,7 27,-7 0,-41c-14,-18 -20,-38 -18,-64c3,-52 0,-64 -11,-57c-14,8 -13,200 1,250c10,38 28,69 35,62c2,-1 -6,-32 -17,-67zm461,-7c0,-30 -128,-203 -149,-203c-5,0 -6,12 -3,28c4,25 1,24 -48,-23l-52,-50l4,33c3,17 2,32 -2,32c-8,0 -72,-85 -100,-132c-24,-42 -13,-50 27,-19c13,11 49,25 79,32c46,10 57,10 70,-2c12,-13 10,-21 -17,-64c-37,-60 -98,-125 -116,-125c-7,0 -31,-17 -54,-37l-40,-37l7,64l7,63l-32,-6c-42,-9 -41,8 6,92c29,53 38,80 42,136l6,70l101,36c56,19 133,54 170,76c68,40 94,50 94,36zm304,-169c3,-9 6,-27 6,-40c0,-29 -41,-114 -64,-133c-14,-12 -16,-9 -16,21c0,31 29,132 45,158c9,15 22,12 29,-6zm-328,-79c7,-17 -56,-118 -115,-185c-35,-39 -40,-42 -41,-23c0,35 47,145 81,186c32,38 65,48 75,22zm104,-7c0,-7 -5,-20 -10,-28c-8,-12 -10,-9 -10,13c0,15 5,27 10,27c6,0 10,-6 10,-12zm276,-151c-7,-26 -44,-72 -52,-64c-7,6 14,121 28,155c11,26 11,26 21,-21c5,-26 6,-57 3,-70zm-226,40c0,-27 -68,-169 -69,-145c-2,29 21,121 36,151c15,31 33,28 33,-6zm578,-10c2,-18 -1,-27 -11,-27c-16,0 -26,27 -19,48c7,21 27,7 30,-21zm-518,-57c0,-18 -30,-84 -47,-102c-40,-44 -45,4 -8,69c24,39 55,58 55,33zm-1162,-18c5,-17 -64,-82 -89,-82c-28,0 -75,-38 -116,-93c-53,-71 -30,-71 39,1c58,62 81,75 59,34c-17,-32 -122,-123 -134,-115c-6,3 -30,-16 -54,-43l-44,-49l7,50c18,135 71,232 148,272c73,38 175,52 184,25zm1703,-23c-9,-23 -10,-22 -10,11c-1,23 2,31 9,24c7,-7 7,-19 1,-35zm-898,-35c9,-9 -28,-87 -84,-176c-69,-109 -84,-127 -66,-73c8,22 24,73 37,112c31,96 86,163 113,137zm952,-14c10,-16 -5,-50 -21,-50c-20,0 -29,27 -14,45c14,17 26,19 35,5zm-207,-55c13,-28 0,-145 -21,-195c-10,-24 -11,-23 -18,20c-23,134 4,252 39,175zm-172,-43c-8,-56 -38,-142 -48,-142c-4,0 -8,14 -8,31c0,49 -22,30 -55,-49c-16,-39 -33,-72 -37,-72c-4,0 -8,19 -10,43l-3,42l-29,-57c-16,-32 -33,-58 -37,-58c-4,0 -14,-21 -23,-47c-19,-55 -42,-84 -62,-76c-8,3 -14,16 -14,29c0,29 -4,30 -31,3c-25,-25 -45,-12 -34,22c15,47 357,369 392,369c3,0 3,-17 -1,-38zm-730,-20c-13,-27 -32,-54 -40,-61c-14,-12 -16,-9 -16,28c0,33 4,41 18,41c11,0 27,9 37,20c27,30 28,25 1,-28zm-656,26c0,-20 -45,-112 -61,-125c-24,-20 -65,-32 -78,-23c-18,11 0,41 62,107c48,51 77,66 77,41zm930,-108c-38,-95 -104,-216 -108,-197c-7,31 98,247 120,247c4,0 -1,-22 -12,-50zm690,-11c0,-44 -23,-109 -39,-109c-16,0 -13,85 4,126c18,44 35,36 35,-17zm68,-100c13,-31 25,-48 32,-44c15,9 40,-13 40,-36c0,-56 -52,-94 -64,-46c-3,13 -19,38 -36,55c-16,18 -30,38 -30,45c0,21 21,77 29,77c4,0 17,-23 29,-51zm-342,-36c-4,-9 -9,-53 -12,-98c-8,-123 -14,-165 -26,-165c-8,0 -9,33 -5,108c6,108 20,172 39,172c6,0 7,-8 4,-17zm-73,-100c9,-15 -19,-75 -58,-123c-22,-28 -67,-100 -100,-162c-59,-108 -85,-139 -85,-101c0,10 -17,-8 -39,-43c-39,-62 -58,-81 -68,-70c-10,9 53,125 103,191c25,33 73,101 106,150c102,151 128,180 141,158zm-27,-213c-7,-28 -21,-59 -31,-71c-17,-17 -20,-18 -28,-4c-17,32 16,147 45,158c22,7 28,-30 14,-83zm283,-101c79,-117 87,-144 71,-253c-7,-47 -15,-86 -20,-86c-4,0 -10,24 -13,53c-6,60 -25,107 -43,107c-18,0 -24,25 -24,108c0,86 -7,85 -40,-5c-12,-35 -24,-63 -26,-63c-2,0 -4,59 -4,132c0,129 0,131 20,113c10,-9 46,-57 79,-106zm-233,-105c-8,-98 -18,-224 -22,-279c-7,-107 -15,-135 -41,-135c-9,0 -22,-8 -29,-17c-19,-25 -18,-11 6,121c11,60 18,111 17,113c-2,2 -23,-63 -47,-144c-23,-82 -46,-154 -50,-162c-5,-10 -11,4 -17,40l-10,54l-38,-82c-25,-54 -44,-83 -54,-83c-9,0 -31,-25 -50,-56c-39,-65 -55,-61 -54,14c1,63 33,125 132,255c43,56 85,117 94,134c20,39 35,169 19,159c-7,-4 -12,-13 -12,-19c0,-7 -14,-41 -31,-77c-22,-46 -33,-60 -39,-50c-6,10 -16,1 -39,-35c-17,-26 -40,-53 -52,-59c-22,-11 -48,-53 -70,-110c-6,-17 -13,-25 -16,-19c-7,20 37,150 66,193c82,122 338,437 347,427c2,-2 -3,-84 -10,-183zm-136,127c0,-23 -36,-69 -46,-58c-9,9 22,77 36,77c5,0 10,-9 10,-19zm190,-431c0,-16 -4,-30 -10,-30c-5,0 -10,14 -10,30c0,17 5,30 10,30c6,0 10,-13 10,-30zm56,-110l6,-25l14,28c24,46 37,22 31,-57c-6,-82 -35,-206 -48,-206c-5,0 -9,42 -9,93l0,92l-21,-25l-20,-25l4,90c3,50 11,104 18,120l13,30l3,-45c2,-25 6,-56 9,-70zm-200,-146c-32,-95 -57,-144 -73,-144c-7,0 -13,-11 -13,-25c0,-31 -51,-166 -81,-215l-21,-34l-13,29l-13,30l-1,-35c-1,-19 8,-50 19,-68l20,-33l-27,3c-22,2 -29,-2 -31,-18c-2,-15 4,-23 19,-27c20,-5 21,-10 15,-57c-4,-28 -11,-63 -17,-78c-9,-24 -11,-25 -20,-9c-6,10 -21,61 -35,114c-28,112 -33,241 -11,294c15,37 81,106 109,115c9,3 20,14 23,24c3,11 32,47 63,82c31,35 68,78 81,96c13,18 25,31 27,29c2,-2 -7,-35 -20,-73zm322,24c18,-38 35,-182 27,-234c-3,-24 -17,-56 -29,-71l-23,-26l5,57c4,45 1,61 -13,76c-13,15 -20,42 -23,98c-6,115 23,167 56,100zm-349,-238c-70,-254 -139,-418 -139,-330c0,66 126,400 151,400c4,0 -1,-31 -12,-70zm111,-116c0,-14 -7,-53 -16,-86c-8,-33 -13,-67 -9,-75c3,-10 -11,-32 -39,-59c-41,-42 -66,-55 -66,-35c0,18 80,234 95,257c20,31 35,30 35,-2z" fill="#685a54" id="svg_2"/>
   <path d="m4215,5353c11,-46 31,-62 100,-79c20,-5 25,-2 25,14c0,25 -23,44 -44,36c-10,-4 -26,5 -45,25c-36,38 -45,39 -36,4z" fill="#685a54" id="svg_3"/>
   <path d="m3250,5416c-38,-12 -55,-46 -22,-46c18,0 70,46 61,54c-2,2 -20,-1 -39,-8z" fill="#685a54" id="svg_4"/>
   <path d="m3022,5225c-26,-23 -45,-50 -52,-73c-11,-42 -14,-222 -2,-221c6,0 88,96 121,143c9,11 -6,4 -33,-17c-27,-20 -52,-34 -57,-31c-18,11 -8,46 21,76c36,36 37,40 5,28c-40,-15 -37,4 10,69c25,34 41,61 37,61c-5,0 -27,-16 -50,-35z" fill="#685a54" id="svg_5"/>
   <path d="m2851,5083c-31,-37 -40,-63 -22,-63c14,0 71,69 71,85c0,25 -17,17 -49,-22z" fill="#685a54" id="svg_6"/>
   <path d="m2688,4973c-47,-51 -78,-143 -48,-143c6,0 10,-33 10,-77c1,-43 6,-91 13,-106l12,-28l42,63c30,46 38,64 27,66c-18,4 -18,26 1,42c18,15 20,66 2,73c-7,3 -25,3 -40,0c-33,-7 -34,1 -2,52c24,39 33,85 17,85c-5,0 -20,-12 -34,-27z" fill="#685a54" id="svg_7"/>
   <path d="m2890,4895c0,-14 5,-25 10,-25c6,0 10,11 10,25c0,14 -4,25 -10,25c-5,0 -10,-11 -10,-25z" fill="#685a54" id="svg_8"/>
   <path d="m3039,5550c-19,-16 -29,-29 -22,-30c15,0 70,47 62,54c-3,3 -21,-8 -40,-24z" fill="#685a54" id="svg_9"/>
   <path d="m4040,5308c0,-3 13,-35 30,-70c17,-35 30,-80 30,-100c0,-21 4,-38 10,-38c16,0 55,-69 116,-204c31,-69 60,-126 65,-126c17,0 -63,196 -149,365c-51,100 -101,186 -102,173z" fill="#685a54" id="svg_10"/>
   <path d="m4310,4702c0,-11 7,-25 15,-32c12,-10 15,-9 15,8c0,11 -7,25 -15,32c-12,10 -15,9 -15,-8z" fill="#685a54" id="svg_11"/>
   <path d="m4260,4680c0,-30 51,-140 57,-124c5,14 -32,123 -47,138c-7,7 -10,2 -10,-14z" fill="#685a54" id="svg_12"/>
   <path d="m4227,4568c8,-29 28,-80 44,-113c24,-51 28,-55 23,-25c-8,46 -65,190 -75,190c-4,0 -1,-24 8,-52z" fill="#685a54" id="svg_13"/>
   <path d="m2819,5380c-9,-5 -29,-26 -44,-46l-28,-37l32,19c18,10 39,27 48,36c19,21 14,40 -8,28z" fill="#685a54" id="svg_14"/>
   <path d="m2683,5358c-18,-11 -33,-24 -33,-29c0,-18 31,-8 62,21c38,34 20,39 -29,8z" fill="#685a54" id="svg_15"/>
   <path d="m4435,4989c13,-43 48,-104 52,-92c2,6 -6,32 -18,57c-24,51 -46,74 -34,35z" fill="#685a54" id="svg_16"/>
   <path d="m4547,4933c27,-67 53,-113 63,-113c10,0 -18,72 -47,121c-25,41 -35,36 -16,-8z" fill="#685a54" id="svg_17"/>
   <path d="m4714,4765c12,-50 59,-142 63,-124c5,22 -34,124 -54,141c-15,12 -16,10 -9,-17z" fill="#685a54" id="svg_18"/>
   <path d="m4796,4583c-4,-9 -2,-21 4,-27c7,-7 10,-2 10,17c0,31 -5,34 -14,10z" fill="#685a54" id="svg_19"/>
   <path d="m2267,4759c-10,-6 -30,-8 -46,-4c-22,5 -37,-2 -77,-33c-27,-22 -68,-63 -92,-91l-44,-51l37,24c30,21 40,23 55,13c16,-9 26,-6 61,18c35,25 140,136 128,135c-2,0 -12,-5 -22,-11z" fill="#685a54" id="svg_20"/>
   <path d="m3795,4788c-4,-10 -4,-26 0,-35c8,-17 8,-17 12,0c3,9 3,25 0,35c-4,16 -4,16 -12,0z" fill="#685a54" id="svg_21"/>
   <path d="m3408,4575c-12,-26 -4,-46 11,-29c5,5 12,19 16,32c9,31 -12,29 -27,-3z" fill="#685a54" id="svg_22"/>
   <path d="m4500,4502c0,-28 23,-102 32,-102c6,0 8,10 4,23c-3,12 -6,29 -6,38c0,19 -29,60 -30,41z" fill="#685a54" id="svg_23"/>
   <path d="m4627,4083c-11,-10 -8,-43 3,-43c6,0 10,11 10,25c0,26 -2,29 -13,18z" fill="#685a54" id="svg_24"/>
   <path d="m4633,3940c0,-25 2,-35 4,-22c2,12 2,32 0,45c-2,12 -4,2 -4,-23z" fill="#685a54" id="svg_25"/>
   <path d="m4581,3837c-21,-53 -34,-158 -22,-170c8,-8 11,0 11,30c0,23 4,44 9,47c13,8 41,-68 41,-109c0,-18 5,-37 10,-40c15,-9 12,81 -5,171c-17,90 -30,110 -44,71z" fill="#685a54" id="svg_26"/>
   <path d="m3082,4498c-12,-12 -17,-38 -6,-38c16,0 44,23 44,35c0,18 -21,20 -38,3z" fill="#685a54" id="svg_27"/>
   <path d="m3915,4150c-8,-24 7,-46 24,-36c15,10 14,31 -3,45c-11,10 -16,8 -21,-9z" fill="#685a54" id="svg_28"/>
   <path d="m3167,4048c-35,-46 -103,-158 -111,-184c-5,-18 -2,-22 25,-28c37,-7 48,-1 31,16c-20,20 -14,36 39,129c53,91 61,127 16,67z" fill="#685a54" id="svg_29"/>
   <path d="m3146,3508c-21,-30 -2,-52 20,-24c16,23 19,46 5,46c-6,0 -17,-10 -25,-22z" fill="#685a54" id="svg_30"/>
   <path d="m2321,2690c-18,-33 -31,-66 -28,-73c4,-11 34,40 64,106c23,52 -4,27 -36,-33z" fill="#685a54" id="svg_31"/>
   <path d="m2445,3602c-17,-12 -55,-64 -55,-75c0,-6 18,7 40,28c38,37 49,55 33,55c-5,0 -13,-4 -18,-8z" fill="#685a54" id="svg_32"/>
   <path d="m2405,3456c-16,-13 -27,-27 -23,-31c3,-3 21,7 40,24c39,36 26,41 -17,7z" fill="#685a54" id="svg_33"/>
   <path d="m3252,2430c-25,-39 -26,-46 -12,-55c14,-9 42,40 38,67c-3,22 -5,21 -26,-12z" fill="#685a54" id="svg_34"/>
   <path d="m3796,1450c-4,-25 -15,-65 -23,-88c-20,-59 -10,-63 16,-8c16,31 21,59 19,93l-3,48l-9,-45z" fill="#685a54" id="svg_35"/>
   <path d="m3576,614c-3,-9 -2,-23 4,-32c7,-14 9,-10 10,16c0,35 -5,41 -14,16z" fill="#685a54" id="svg_36"/>
  </g>
 </g>
</svg>